<svg width="1200" height="800" viewBox="0 0 1200 800" xmlns="http://www.w3.org/2000/svg">
  <defs>
    <linearGradient id="grad" x1="0%" y1="0%" x2="100%" y2="100%">
      <stop offset="0%" stop-color="#ffcc00"/>
      <stop offset="100%" stop-color="#ff9900"/>
    </linearGradient>
  </defs>
  <rect width="1200" height="800" fill="#1c1b29" />
  <rect x="180" y="240" width="840" height="420" rx="40" ry="40" fill="#262437" stroke="#ffd54f" stroke-width="14"/>
  <rect x="260" y="320" width="620" height="240" fill="#0b0c18" rx="20" ry="20" />
  <rect x="360" y="420" width="420" height="100" fill="#1f1f2f" rx="18" ry="18" />
  <path d="M300 240 l0 -80 l120 0 l0 80" fill="#1f1f2f" stroke="#ffd54f" stroke-width="12"/>
  <path d="M780 240 l0 -80 l120 0 l0 80" fill="#1f1f2f" stroke="#ffd54f" stroke-width="12"/>
  <circle cx="320" cy="540" r="18" fill="#ffd54f" />
  <circle cx="380" cy="540" r="18" fill="#ffd54f" />
  <circle cx="440" cy="540" r="18" fill="#ffd54f" />
  <circle cx="880" cy="540" r="18" fill="#ffd54f" />
  <circle cx="940" cy="540" r="18" fill="#ffd54f" />
  <circle cx="1000" cy="540" r="18" fill="#ffd54f" />
  <text x="600" y="730" text-anchor="middle" fill="url(#grad)" font-family="Segoe UI, Tahoma, Geneva, Verdana, sans-serif" font-size="60" font-weight="700">School image placeholder</text>
</svg>
